<svg width="50" height="50" viewBox="0 0 50 50" fill="none" xmlns="http://www.w3.org/2000/svg">
<rect width="50" height="50" fill="#FAFAFA"/>
<path d="M28.8594 29.3301C28.6562 29.9734 28.5462 30.9721 28.5293 32.3262H21.6738C21.7754 29.4656 22.0462 27.4936 22.4863 26.4102C22.9264 25.31 24.0605 24.0489 25.8887 22.627L27.7422 21.1797C28.3516 20.7227 28.8424 20.2234 29.2148 19.6817C29.8919 18.7507 30.2305 17.7266 30.2305 16.6094C30.2305 15.323 29.8496 14.155 29.0879 13.1055C28.3431 12.0391 26.972 11.5059 24.9746 11.5059C23.0111 11.5059 21.6146 12.1576 20.7852 13.461C19.9727 14.7644 19.5664 16.1186 19.5664 17.5235H12.2285C12.4316 12.6993 14.1159 9.28001 17.2812 7.26569C19.2786 5.97923 21.7331 5.336 24.6445 5.336C28.4701 5.336 31.6439 6.25006 34.166 8.07819C36.7051 9.90631 37.9746 12.6146 37.9746 16.2032C37.9746 18.4037 37.4245 20.2572 36.3242 21.7637C35.681 22.6778 34.4453 23.8458 32.6172 25.2676L30.8145 26.6641C29.8327 27.4258 29.181 28.3145 28.8594 29.3301ZM29.0625 43.1426H21.4961V35.8047H29.0625V43.1426Z" fill="black"/>
</svg>
